<svg width="44" height="44" viewBox="0 0 44 44" fill="none" xmlns="http://www.w3.org/2000/svg">
<circle cx="22" cy="22" r="22" fill="#CB3E2D"/>
<g clip-path="url(#clip0_1382_3)">
<path d="M33 20.625H30.9375V18.5625H28.875V20.625H26.8125V22.6875H28.875V24.75H30.9375V22.6875H33V20.625Z" fill="white"/>
<path d="M18.5625 20.6251V23.1688H22.6875C22.55 24.2688 21.3812 26.4001 18.4937 26.4001C15.95 26.4001 13.8875 24.2688 13.8875 21.7251C13.8875 19.1813 15.95 17.0501 18.4937 17.0501C19.9375 17.0501 20.9 17.6688 21.45 18.2188L23.4438 16.2938C22.1375 15.0563 20.4875 14.3688 18.425 14.3688C14.3 14.2313 11 17.6001 11 21.7251C11 25.8501 14.3 29.1501 18.425 29.1501C23.5813 29.1501 26.1938 24.8876 25.4375 20.6251H18.5625Z" fill="white"/>
</g>
<defs>
<clipPath id="clip0_1382_3">
<rect width="22" height="22" fill="white" transform="translate(11 11)"/>
</clipPath>
</defs>
</svg>
