<svg width="14" height="13" viewBox="0 0 14 13" fill="none" xmlns="http://www.w3.org/2000/svg">
<path d="M8.66127 4.63303L8.77761 4.86877L9.03776 4.90656L12.7528 5.44623L10.0648 8.06646L9.87661 8.24993L9.92101 8.50898L10.5553 12.2094L7.23275 10.4619L7.00001 10.3395L6.76728 10.4619L3.44472 12.2093L4.0803 8.50892L4.12483 8.24964L3.93637 8.06609L1.24646 5.44628L4.96226 4.90656L5.22242 4.86877L5.33876 4.63303L7.00001 1.26679L8.66127 4.63303ZM13.5558 5.31294C13.566 5.2712 13.5644 5.22744 13.5511 5.18656L10.4138 8.4245L13.4932 5.42281C13.5239 5.39272 13.5455 5.35467 13.5558 5.31294Z" stroke="#FFC045"/>
</svg>
