<svg width="14" height="13" viewBox="0 0 14 13" fill="none" xmlns="http://www.w3.org/2000/svg">
<path d="M13.5511 5.18656C13.5379 5.14569 13.5134 5.10935 13.4806 5.08166C13.4477 5.05398 13.4077 5.03606 13.3652 5.02994L9.10964 4.41175L7.20651 0.555408C7.18516 0.519702 7.1549 0.490144 7.11871 0.469619C7.08252 0.449095 7.04162 0.438307 7.00001 0.438307C6.95841 0.438307 6.91751 0.449095 6.88132 0.469619C6.84513 0.490144 6.81487 0.519702 6.79351 0.555408L4.89039 4.41175L0.634388 5.02994C0.591625 5.03591 0.551402 5.05378 0.518318 5.08153C0.485234 5.10927 0.460623 5.14577 0.447298 5.18684C0.433973 5.22791 0.432472 5.2719 0.442965 5.31378C0.453458 5.35567 0.475523 5.39375 0.506638 5.42369L3.58751 8.42428L2.85951 12.6628C2.8521 12.7052 2.85672 12.7488 2.87286 12.7888C2.88899 12.8287 2.91599 12.8633 2.9508 12.8886C2.9856 12.914 3.02681 12.9291 3.06976 12.9322C3.11271 12.9353 3.15567 12.9263 3.19376 12.9063L7.00001 10.9045L10.8063 12.9063C10.8443 12.9262 10.8871 12.9352 10.93 12.9321C10.9728 12.929 11.014 12.914 11.0487 12.8888C11.0835 12.8635 11.1105 12.8291 11.1267 12.7893C11.143 12.7495 11.1477 12.706 11.1405 12.6637L10.4138 8.4245L13.4932 5.42281C13.5239 5.39272 13.5455 5.35467 13.5558 5.31294C13.566 5.2712 13.5644 5.22744 13.5511 5.18656Z" fill="#FFC045"/>
</svg>
